<?xml version="1.0" encoding="utf-8"?>
<!-- Generator: Adobe Illustrator 14.0.0, SVG Export Plug-In . SVG Version: 6.00 Build 43363)  -->
<!DOCTYPE svg PUBLIC "-//W3C//DTD SVG 1.1//EN" "http://www.w3.org/Graphics/SVG/1.1/DTD/svg11.dtd">
<svg version="1.1" id="Layer_1" xmlns="http://www.w3.org/2000/svg" xmlns:xlink="http://www.w3.org/1999/xlink" x="0px" y="0px"
	 width="72px" height="72px" viewBox="0 0 72 72" enable-background="new 0 0 72 72" xml:space="preserve">
<g>
	<path fill="none" stroke="#0A4ECB" stroke-width="3" d="M60.904,31.998l-0.57-1.665c-0.314-0.922-1.316-1.667-2.238-1.667h-2.068
		c-1.551-4.354-3.449-9.61-4.002-10.843c-0.857-1.914-3.6-2.779-5.107-3.199c0,0-2.518-0.958-10.918-0.958
		c-8.4,0-10.92,0.957-10.92,0.957c-1.766,0.59-4.22,1.426-5.195,3.285c-0.458,0.876-2.386,6.281-3.954,10.757h-2.025
		c-0.921,0-1.923,0.747-2.238,1.668l-0.571,1.665c-0.315,0.923,0.175,1.667,1.096,1.667h1.999c-0.259,0.749-0.415,1.202-0.415,1.202
		c-0.16,0.271-0.276,1.52-0.276,1.854v9.444v0.658v5.078c0,0.975,0.792,1.765,1.766,1.765h6.471c0.975,0,1.765-0.79,1.765-1.765
		v-3.234h25v3.234c0,0.975,0.789,1.765,1.764,1.765h6.469c0.975,0,1.768-0.79,1.768-1.765v-5.078v-0.658V36.72
		c0-0.334-0.115-1.582-0.277-1.853c0,0-0.16-0.453-0.424-1.203h2.01C60.729,33.664,61.219,32.92,60.904,31.998z"/>
	<g>
		<path fill="#0A4ECB" d="M36.493,23.177c-0.346-0.095-0.706,0.11-0.802,0.457l-0.313,1.142c-0.078,0.282-0.423,0.435-0.77,0.338
			l-3.07-0.843c-1.042-0.287-2.12,0.328-2.406,1.368l-0.217,0.787c-0.095,0.349-0.456,0.553-0.805,0.457l-2.203-0.605
			c-1.039-0.286-2.078,0.169-2.309,1.015l-0.249,0.905c-0.097,0.348,0.109,0.708,0.456,0.803c0.347,0.096,0.707-0.109,0.802-0.456
			l0.249-0.906c0.016-0.056,0.273-0.22,0.705-0.102l2.204,0.605c1.043,0.287,2.122-0.328,2.409-1.368l0.214-0.789
			c0.098-0.347,0.457-0.552,0.804-0.455l3.069,0.843c1.041,0.287,2.106-0.274,2.375-1.251l0.314-1.14
			C37.047,23.633,36.842,23.272,36.493,23.177z"/>
		<g>
			<path fill="#0A4ECB" d="M44.781,35.906c0.053-0.194-0.133-0.244-0.133-0.244l-18.259-5.021c0,0-0.139-0.037-0.17,0.087
				c-0.331,1.194-0.841,3.05-1.181,4.283c-0.03,0.117,0.115,0.156,0.115,0.156l18.25,5.02c0,0,0.186,0.05,0.252-0.184
				C43.879,39.186,44.502,36.928,44.781,35.906z"/>
			<path fill="#0A4ECB" d="M23.377,34.592c-0.022,0.082,0.055,0.104,0.055,0.104l0.602,0.163c0,0,0.064,0.02,0.089-0.063
				c0.338-1.234,1.198-4.359,1.198-4.359s0.021-0.083-0.03-0.096c-0.155-0.044-0.472-0.131-0.63-0.175
				c-0.062-0.017-0.083,0.067-0.083,0.067S23.717,33.358,23.377,34.592z"/>
			<path fill="#0A4ECB" d="M23.649,30.052c0.043-0.151-0.116-0.195-0.116-0.195l-0.109-0.029c-0.683-0.188-1.393,0.217-1.581,0.897
				l-0.563,2.047c-0.186,0.682,0.217,1.393,0.899,1.58l0.118,0.031c0,0,0.15,0.043,0.189-0.105
				C22.812,33.098,23.315,31.27,23.649,30.052z"/>
			<path fill="#0A4ECB" d="M49.82,37.083c0,0-2.521-0.693-3.381-0.93c-0.199-0.055-0.266,0.18-0.266,0.18l-1.123,4.089
				c0,0-0.057,0.202,0.123,0.251c0.852,0.233,3.402,0.936,3.402,0.936c0.682,0.188,1.391-0.217,1.58-0.899l0.563-2.047
				C50.906,37.981,50.502,37.271,49.82,37.083z"/>
		</g>
	</g>
	<circle fill="none" stroke="#0A4ECB" stroke-width="5" cx="36" cy="36" r="32.5"/>
</g>
</svg>
