<?xml version="1.0" encoding="utf-8"?>
<!-- Generator: Adobe Illustrator 14.0.0, SVG Export Plug-In . SVG Version: 6.00 Build 43363)  -->
<!DOCTYPE svg PUBLIC "-//W3C//DTD SVG 1.1//EN" "http://www.w3.org/Graphics/SVG/1.1/DTD/svg11.dtd">
<svg version="1.1" id="Layer_1" xmlns="http://www.w3.org/2000/svg" xmlns:xlink="http://www.w3.org/1999/xlink" x="0px" y="0px"
	 width="72px" height="72px" viewBox="0 0 72 72" enable-background="new 0 0 72 72" xml:space="preserve">
<g>
	<g>
		<g>
			<path fill="#0A4ECB" d="M58.892,38.525c0-8.227-9.413-21.608-15.198-21.608c-2.762,0-4.216,3.063-4.963,7.145
				c-0.448-0.51-0.712-0.903-0.951-1.176V12.397c0-1.015-0.769-1.84-1.783-1.84c-1.014,0-1.781,0.825-1.781,1.84v10.722
				c-0.241,0.479-0.537,0.917-0.907,1.334c-0.732-4.208-2.177-7.395-4.993-7.395c-5.785,0-15.206,13.384-15.206,21.605
				c0,8.227-1.097,14.893,4.686,14.893c5.786,0,16.256-6.666,16.256-14.893c0-2.901,0-6.442-0.249-9.813
				c0.887-0.62,1.705-1.324,2.395-2.141c0.537,0.596,1.202,1.253,2.007,1.928c-0.25,3.395-0.25,6.963-0.25,9.887
				c0,8.224,10.469,14.896,16.254,14.896C59.984,53.421,58.892,46.749,58.892,38.525z"/>
		</g>
		<circle fill="none" stroke="#0A4ECB" stroke-width="5" cx="36" cy="36" r="32.5"/>
	</g>
	<text transform="matrix(1 0 0 1 23.7178 60.6582)" fill="#0A4ECB" font-family="'MuseoSans-500'" font-size="8.5">COPD</text>
</g>
</svg>
