<?xml version="1.0" encoding="utf-8"?>
<!-- Generator: Adobe Illustrator 14.0.0, SVG Export Plug-In . SVG Version: 6.00 Build 43363)  -->
<!DOCTYPE svg PUBLIC "-//W3C//DTD SVG 1.1//EN" "http://www.w3.org/Graphics/SVG/1.1/DTD/svg11.dtd">
<svg version="1.1" id="Layer_1" xmlns="http://www.w3.org/2000/svg" xmlns:xlink="http://www.w3.org/1999/xlink" x="0px" y="0px"
	 width="72px" height="72px" viewBox="0 0 72 72" enable-background="new 0 0 72 72" xml:space="preserve">
<g>
	<g>
		<g>
			<ellipse fill="#0A4ECB" cx="35.994" cy="45.58" rx="2.766" ry="1.106"/>
			<path fill="#0A4ECB" d="M57.117,36.947c-0.025-0.254-0.059-0.514-0.092-0.774c0.424-0.039,0.793-0.307,0.941-0.716
				c0.656-1.801,0.988-3.657,0.988-5.516c0-2.368-0.535-4.707-1.598-6.95c-0.256-0.544-0.902-0.784-1.453-0.536l-2.895,1.307
				l2.045-3.257c0.254-0.403,0.221-0.925-0.08-1.292c-3.844-4.661-9.922-7.654-16.682-8.21c-0.533-0.037-0.992,0.278-1.146,0.773
				L36,15.43l-1.146-3.653c-0.154-0.495-0.636-0.805-1.147-0.773c-6.76,0.556-12.84,3.549-16.682,8.21
				c-0.301,0.367-0.337,0.889-0.081,1.292l2.045,3.257l-2.896-1.307c-0.549-0.246-1.194-0.007-1.452,0.536
				c-1.061,2.243-1.599,4.584-1.599,6.95c0,1.861,0.334,3.716,0.992,5.518c0.154,0.428,0.555,0.708,1.003,0.722
				c-0.031,0.239-0.062,0.477-0.086,0.706c-1.664,1.327-2.741,3.429-2.741,5.789c0,3.284,2.086,6.064,4.938,6.96
				C20.758,56.542,27.998,61,36.034,61c8.042,0,15.292-4.47,18.9-11.391c2.807-0.921,4.855-3.682,4.855-6.937
				C59.783,40.35,58.738,38.276,57.117,36.947z M52.875,45.51c-0.32,0-0.621-0.071-0.904-0.201
				c-2.254,6.548-8.531,11.266-15.94,11.266c-7.417,0-13.703-4.727-15.95-11.287c-0.299,0.144-0.623,0.223-0.967,0.223
				c-1.377,0-2.48-1.268-2.48-2.834c0-1.563,1.102-2.835,2.476-2.837c0.379,0.648,0.811,1.273,1.306,1.868
				c-0.46-1.581-0.712-3.205-0.712-4.818c0-0.24,0.023-0.468,0.036-0.702h1.337c-0.024,0.229-0.014,0.462,0.058,0.687l1.3,4.149
				c0.216,0.692,0.855,1.163,1.584,1.163h7.146c0.593,0,1.139-0.315,1.437-0.826l2.408-4.149c0.181-0.315,0.237-0.671,0.199-1.023
				h1.582c-0.037,0.349,0.02,0.708,0.199,1.023l2.41,4.149c0.297,0.511,0.844,0.826,1.436,0.826h7.146
				c0.725,0,1.367-0.471,1.584-1.163l1.299-4.149c0.07-0.225,0.082-0.458,0.059-0.687h1.338c0.012,0.234,0.035,0.462,0.035,0.702
				c0,1.612-0.252,3.24-0.713,4.818c0.492-0.594,0.928-1.221,1.307-1.868c1.373,0.003,2.477,1.271,2.477,2.837
				C55.357,44.242,54.252,45.51,52.875,45.51z"/>
		</g>
	</g>
	<circle fill="none" stroke="#0A4ECB" stroke-width="5" cx="36" cy="36" r="32.5"/>
</g>
</svg>
