<?xml version="1.0" encoding="utf-8"?>
<!-- Generator: Adobe Illustrator 14.0.0, SVG Export Plug-In . SVG Version: 6.00 Build 43363)  -->
<!DOCTYPE svg PUBLIC "-//W3C//DTD SVG 1.1//EN" "http://www.w3.org/Graphics/SVG/1.1/DTD/svg11.dtd">
<svg version="1.1" id="Layer_1" xmlns="http://www.w3.org/2000/svg" xmlns:xlink="http://www.w3.org/1999/xlink" x="0px" y="0px"
	 width="72px" height="72px" viewBox="0 0 72 72" enable-background="new 0 0 72 72" xml:space="preserve">
<g>
	<g>
		<path fill="#0A4ECB" d="M36.762,31.502V16.88c0-3.244-2.615-5.88-5.856-5.88c-2.438,0-4.524,1.49-5.417,3.607
			c-0.164-0.026-0.319-0.042-0.494-0.042c-0.397,0-0.771,0.077-1.121,0.218l-3.237-1.925c-0.666-0.394-1.527-0.176-1.922,0.49
			l-0.446,0.745c-0.395,0.666-0.176,1.529,0.49,1.925L22,17.946c0.021,0.187,0.059,0.366,0.11,0.544l-3.268,4.604
			c-0.217,0.305-0.302,0.683-0.238,1.05c0.062,0.366,0.27,0.694,0.575,0.909l0.724,0.513c0.632,0.443,1.504,0.295,1.953-0.334
			l3.228-4.522v14.045l-1.036,0.37c-2.694,0.969-4.486,3.524-4.486,6.385v5.758c0,2.256,0.676,4.465,1.939,6.334L26.504,61h24.855
			l2.381-13.502c1.121-6.363-2.881-12.511-9.156-14.062L36.762,31.502z M27.134,19.707l7.362-4.736
			c0.308,0.569,0.529,1.222,0.529,1.913v1.475l-8.209,5.695v-4.09C26.977,19.881,27.045,19.797,27.134,19.707z M35.026,26.009
			l-3.063-3.243l3.063-2.158V26.009z M26.817,26.304l3.536-2.47l3.532,3.707h-7.068V26.304z M30.921,12.841
			c0.866,0,1.67,0.274,2.324,0.74l-5.273,3.413c-0.119-0.596-0.414-1.13-0.829-1.545C27.724,13.928,29.199,12.841,30.921,12.841z"/>
	</g>
	<circle fill="none" stroke="#0A4ECB" stroke-width="5" cx="36" cy="36" r="32.5"/>
</g>
</svg>
