<?xml version="1.0" encoding="utf-8"?>
<!-- Generator: Adobe Illustrator 14.0.0, SVG Export Plug-In . SVG Version: 6.00 Build 43363)  -->
<!DOCTYPE svg PUBLIC "-//W3C//DTD SVG 1.1//EN" "http://www.w3.org/Graphics/SVG/1.1/DTD/svg11.dtd">
<svg version="1.1" id="Layer_1" xmlns="http://www.w3.org/2000/svg" xmlns:xlink="http://www.w3.org/1999/xlink" x="0px" y="0px"
	 width="72px" height="72px" viewBox="0 0 72 72" enable-background="new 0 0 72 72" xml:space="preserve">
<g>
	<g>
		<g>
			<path fill="#0A4ECB" d="M35.84,21.215c0.548,0.38,1.303,0.242,1.683-0.306c0.212-0.31,0.258-0.682,0.162-1.019l2.17-4.547
				l-3.445,3.683c-0.341,0.034-0.665,0.206-0.873,0.509C35.153,20.083,35.292,20.837,35.84,21.215z"/>
			<path fill="#0A4ECB" d="M26.19,46.197h8.187h6.812h8.187c4.404,0,7.984-3.58,7.984-7.985c0-4.402-3.58-7.981-7.984-7.981h-2.16
				v-7.707c0-1.21-0.804-2.22-1.905-2.556c0-0.043,0.006-0.085,0.006-0.128c0-4.875-3.965-8.84-8.84-8.84
				c-4.876,0-8.84,3.965-8.84,8.839H17.325c-1.483,0-2.686,1.201-2.686,2.685v13.956c0,1.482,1.202,2.685,2.686,2.685h27.204
				c1.485,0,2.686-1.202,2.686-2.685v-2.491h2.16c2.33,0,4.226,1.896,4.226,4.224c0,2.331-1.896,4.227-4.226,4.227h-8.188h-6.81
				H26.19c-4.403,0-7.984,3.58-7.984,7.982c0,4.404,3.581,7.984,7.984,7.984h13.148C40.086,59.939,41.656,61,43.48,61h3.152
				c2.545,0,4.61-2.063,4.61-4.606c0-2.546-2.065-4.611-4.61-4.611H43.48c-1.93,0-3.58,1.187-4.268,2.865H26.19
				c-2.331,0-4.227-1.896-4.227-4.226C21.964,48.093,23.86,46.197,26.19,46.197z M36.476,13.675c3.546,0,6.419,2.872,6.419,6.416
				c0,3.545-2.873,6.417-6.419,6.417c-3.542,0-6.416-2.872-6.416-6.417C30.06,16.547,32.934,13.675,36.476,13.675z"/>
		</g>
	</g>
	<circle fill="none" stroke="#0A4ECB" stroke-width="5" cx="36" cy="35.999" r="32.5"/>
</g>
</svg>
