<?xml version="1.0" encoding="utf-8"?>
<!-- Generator: Adobe Illustrator 14.0.0, SVG Export Plug-In . SVG Version: 6.00 Build 43363)  -->
<!DOCTYPE svg PUBLIC "-//W3C//DTD SVG 1.1//EN" "http://www.w3.org/Graphics/SVG/1.1/DTD/svg11.dtd">
<svg version="1.1" id="Layer_1" xmlns="http://www.w3.org/2000/svg" xmlns:xlink="http://www.w3.org/1999/xlink" x="0px" y="0px"
	 width="72px" height="72px" viewBox="0 0 72 72" enable-background="new 0 0 72 72" xml:space="preserve">
<g>
	<g>
		<g>
			<path fill="#0A4ECB" d="M45.981,23.02c-0.485,0-0.857,0.371-0.857,0.857V35.61h-6.087v-4.79c0-0.448-0.376-0.843-0.827-0.843
				h-4.401c-0.485,0-0.875,0.395-0.875,0.843v4.79h-6.071V24.266c0-0.451-0.375-0.828-0.86-0.828c-0.451,0-0.826,0.376-0.826,0.828
				v12.205c0,0.451,0.375,0.828,0.826,0.828h7.806c0.451,0,0.826-0.377,0.826-0.828v-4.793h2.714v4.793
				c0,0.451,0.375,0.828,0.86,0.828h7.771c0.454,0,0.826-0.377,0.826-0.828V23.877C46.808,23.391,46.436,23.02,45.981,23.02z"/>
			<path fill="#0A4ECB" d="M50.648,23.688l-6.773-6.803v-4.636c0-0.484-0.391-0.854-0.875-0.854c-0.453,0-0.826,0.371-0.826,0.854
				v2.936l-5.589-5.619c-0.171-0.175-0.372-0.267-0.577-0.267c-0.232,0-0.437,0.098-0.608,0.267l-14.03,14.03
				c-0.337,0.335-0.358,0.875,0,1.184c0.313,0.359,0.85,0.335,1.187,0l13.451-13.421L49.43,24.907c0.139,0.14,0.345,0.22,0.607,0.22
				c0.236,0,0.438-0.08,0.611-0.22C50.959,24.593,50.982,24.029,50.648,23.688z"/>
		</g>
	</g>
	<circle fill="none" stroke="#0A4ECB" stroke-width="5" cx="36" cy="36" r="32.5"/>
	<g>
		<defs>
			<circle id="SVGID_1_" cx="36" cy="36" r="32.5"/>
		</defs>
		<clipPath id="SVGID_2_">
			<use xlink:href="#SVGID_1_"  overflow="visible"/>
		</clipPath>
		<path clip-path="url(#SVGID_2_)" fill="#0A4ECB" d="M68.5,68.5h-65V38.466h65V68.5z M45.791,52.209
			c0.276,0.438,0.765,0.729,1.321,0.729h-0.136h7.5v-0.021c0.863,0,1.563-0.699,1.563-1.563s-0.699-1.563-1.563-1.563v0.02h-6.478
			l-0.091,0.045c-0.658-1.503-1.309-3.022-1.963-4.536c-0.465-1.07-1.281-0.831-1.764,0c-1.292,2.229-2.508,4.609-3.734,6.973
			c-1.252-2.242-2.427-4.641-3.645-6.973c-0.242-0.463-0.511-0.664-0.774-0.689c-0.028-0.009-0.057-0.002-0.085-0.002
			c-0.028,0-0.058-0.007-0.086,0.002c-0.263,0.026-0.532,0.227-0.774,0.689c-1.217,2.331-2.392,4.73-3.646,6.973
			c-1.228-2.363-2.442-4.744-3.733-6.973c-0.481-0.831-1.299-1.07-1.766,0c-0.649,1.501-1.294,3.008-1.947,4.5l-0.016-0.008h-6.465
			H17.5c-0.863,0-1.563,0.699-1.563,1.563s0.7,1.563,1.563,1.563h0.011h7.5h-0.148c0.555,0,1.042-0.289,1.32-0.725l0.057,0.032
			l0.695-1.645c1.216,2.218,2.386,4.528,3.578,6.803c0.527,0.995,1.231,0.874,1.764,0c1.291-2.132,2.472-4.489,3.667-6.824
			c1.194,2.335,2.376,4.692,3.666,6.824c0.534,0.874,1.238,0.995,1.765,0c1.191-2.269,2.361-4.585,3.577-6.803l0.759,1.657
			L45.791,52.209z"/>
	</g>
	<g>
		<g>
			<g>
			</g>
		</g>
	</g>
</g>
</svg>
