<?xml version="1.0" encoding="utf-8"?>
<!-- Generator: Adobe Illustrator 14.0.0, SVG Export Plug-In . SVG Version: 6.00 Build 43363)  -->
<!DOCTYPE svg PUBLIC "-//W3C//DTD SVG 1.1//EN" "http://www.w3.org/Graphics/SVG/1.1/DTD/svg11.dtd">
<svg version="1.1" id="Layer_1" xmlns="http://www.w3.org/2000/svg" xmlns:xlink="http://www.w3.org/1999/xlink" x="0px" y="0px"
	 width="72px" height="72px" viewBox="0 0 72 72" enable-background="new 0 0 72 72" xml:space="preserve">
<g>
	<circle fill="none" stroke="#0A4ECB" stroke-width="5" cx="36" cy="36" r="32.5"/>
	<g>
		<path fill="#0A4ECB" d="M36.834,18.024c-0.585-0.161-1.193,0.187-1.358,0.773l-0.531,1.932c-0.129,0.479-0.713,0.738-1.3,0.574
			l-5.201-1.43c-1.764-0.485-3.587,0.557-4.072,2.319l-0.37,1.334c-0.158,0.589-0.767,0.934-1.362,0.774l-3.729-1.026
			c-1.76-0.484-3.518,0.284-3.908,1.718l-0.424,1.533c-0.162,0.588,0.187,1.199,0.774,1.358c0.586,0.163,1.2-0.185,1.358-0.771
			l0.424-1.535c0.024-0.095,0.46-0.372,1.191-0.172l3.73,1.027c1.77,0.485,3.596-0.558,4.083-2.318l0.359-1.337
			c0.168-0.586,0.774-0.933,1.361-0.769l5.201,1.426c1.761,0.486,3.565-0.466,4.02-2.119l0.533-1.93
			C37.771,18.797,37.426,18.186,36.834,18.024z"/>
		<g>
			<path fill="#0A4ECB" d="M50.872,39.576c0.085-0.326-0.226-0.412-0.226-0.412l-30.918-8.501c0,0-0.235-0.062-0.288,0.147
				c-0.563,2.022-1.423,5.167-2,7.254c-0.051,0.2,0.195,0.264,0.195,0.264l30.905,8.498c0,0,0.312,0.086,0.425-0.309
				C49.341,45.131,50.398,41.308,50.872,39.576z"/>
			<path fill="#0A4ECB" d="M14.625,37.352c-0.033,0.141,0.093,0.18,0.093,0.18l1.019,0.277c0,0,0.108,0.031,0.151-0.111
				c0.573-2.088,2.03-7.381,2.03-7.381s0.033-0.14-0.05-0.163c-0.267-0.073-0.803-0.222-1.068-0.295
				c-0.103-0.027-0.141,0.114-0.141,0.114S15.202,35.265,14.625,37.352z"/>
			<path fill="#0A4ECB" d="M15.088,29.665c0.071-0.256-0.197-0.33-0.197-0.33l-0.187-0.05c-1.157-0.318-2.355,0.368-2.677,1.519
				l-0.95,3.467c-0.318,1.153,0.365,2.358,1.521,2.676L12.8,37c0,0,0.253,0.072,0.318-0.18
				C13.672,34.824,14.521,31.727,15.088,29.665z"/>
			<path fill="#0A4ECB" d="M59.4,41.57c0,0-4.268-1.173-5.723-1.574c-0.34-0.091-0.449,0.305-0.449,0.305l-1.901,6.922
				c0,0-0.095,0.344,0.208,0.426c1.442,0.396,5.76,1.584,5.76,1.584c1.156,0.318,2.354-0.365,2.676-1.522l0.951-3.466
				C61.24,43.092,60.557,41.889,59.4,41.57z"/>
		</g>
	</g>
</g>
</svg>
