<?xml version="1.0" encoding="utf-8"?>
<!-- Generator: Adobe Illustrator 14.0.0, SVG Export Plug-In . SVG Version: 6.00 Build 43363)  -->
<!DOCTYPE svg PUBLIC "-//W3C//DTD SVG 1.1//EN" "http://www.w3.org/Graphics/SVG/1.1/DTD/svg11.dtd">
<svg version="1.1" id="Layer_1" xmlns="http://www.w3.org/2000/svg" xmlns:xlink="http://www.w3.org/1999/xlink" x="0px" y="0px"
	 width="72px" height="72px" viewBox="0 0 72 72" enable-background="new 0 0 72 72" xml:space="preserve">
<g>
	<g>
		<path fill="#0A4ECB" d="M30.772,15.857h11.461c-0.393,2.389-2.262,4.37-4.782,4.784C34.286,21.163,31.298,19.022,30.772,15.857z"
			/>
		<path fill="#0A4ECB" d="M48.127,41.509c0.144,0.938-0.5,1.813-1.438,1.954c-0.871,0.134-1.683-0.413-1.911-1.239l-0.979-3.553
			c0.848,7.568,0.841,15.285,0.841,15.285h-3.175c-0.029,3.887-0.05,7.199-0.05,7.199c-0.008,1.025-0.845,1.852-1.872,1.844
			c-0.961-0.006-1.746-0.748-1.836-1.684c0,0-0.319-3.406-0.688-7.359h-0.296l-0.675-7.832l-0.184,7.833h-0.596
			c-0.37,3.952-0.689,7.358-0.689,7.358c-0.094,1.021-1.002,1.771-2.021,1.677c-0.956-0.091-1.676-0.899-1.683-1.837
			c0,0-0.023-3.311-0.052-7.198h-3.846c-0.134-2.325,0.549-9.456,1.212-15.593l-0.966,3.516c-0.227,0.828-1.042,1.373-1.911,1.24
			c-0.938-0.142-1.581-1.018-1.441-1.953l1.315-8.663c0.01-0.071,0.032-0.147,0.057-0.218l0.009-0.023l0.198-0.529l0.155-0.393
			l0.324-0.773c0.22-0.512,0.453-1.02,0.698-1.525c0.491-1.009,1.031-2.009,1.668-3c0.648-0.987,1.367-1.976,2.421-2.922
			c0.081-0.074,0.172-0.146,0.262-0.22l-1.418-3.952l0.991,0.347l-0.002-0.005l5.111,1.791l-0.004,0.3
			c0.146-0.011,0.289-0.021,0.439-0.021c0.006,0,0.013,0,0.023,0c0.414,0.001,0.82,0.051,1.208,0.138l-0.005-0.417l5.11-1.79
			l-1.415,3.952c0.09,0.073,0.181,0.146,0.262,0.22c1.052,0.946,1.771,1.935,2.418,2.923c0.641,0.99,1.181,1.989,1.671,2.999
			c0.245,0.505,0.478,1.012,0.696,1.524l0.321,0.773l0.156,0.394l0.202,0.528l0.006,0.024c0.027,0.07,0.048,0.147,0.057,0.218
			L48.127,41.509z M37.664,35.392c0-0.642-0.52-1.16-1.16-1.16c-0.642,0-1.161,0.519-1.161,1.16c0,0.641,0.52,1.159,1.161,1.159
			C37.144,36.551,37.664,36.032,37.664,35.392z M37.664,30.821c0-0.641-0.52-1.16-1.16-1.16c-0.642,0-1.161,0.519-1.161,1.16
			c0,0.642,0.52,1.161,1.161,1.161C37.144,31.982,37.664,31.463,37.664,30.821z M37.664,26.398c0-0.641-0.52-1.16-1.16-1.16
			c-0.642,0-1.161,0.519-1.161,1.16c0,0.641,0.52,1.16,1.161,1.16C37.144,27.559,37.664,27.039,37.664,26.398z"/>
		<path fill="#0A4ECB" d="M27.255,15.419h18.494c0.262,0,0.473-0.211,0.473-0.471c0-0.26-0.211-0.471-0.473-0.471h-3.081v-2.321
			c0-2.083-0.87-3.157-2.952-3.157h-6.268c-2.085,0-2.746,1.074-2.746,3.157v2.321h-3.447c-0.257,0-0.469,0.211-0.469,0.471
			C26.786,15.208,26.997,15.419,27.255,15.419z"/>
	</g>
	<circle fill="none" stroke="#0A4ECB" stroke-width="5" cx="36" cy="36" r="32.5"/>
</g>
</svg>
