<?xml version="1.0" encoding="utf-8"?>
<!-- Generator: Adobe Illustrator 14.0.0, SVG Export Plug-In . SVG Version: 6.00 Build 43363)  -->
<!DOCTYPE svg PUBLIC "-//W3C//DTD SVG 1.1//EN" "http://www.w3.org/Graphics/SVG/1.1/DTD/svg11.dtd">
<svg version="1.1" id="Layer_1" xmlns="http://www.w3.org/2000/svg" xmlns:xlink="http://www.w3.org/1999/xlink" x="0px" y="0px"
	 width="72px" height="72px" viewBox="0 0 72 72" enable-background="new 0 0 72 72" xml:space="preserve">
<g>
	<g>
		<path fill="#0A4ECB" d="M28.94,24.696l-6.563,4.431l-1.107-1.636l6.563-4.43L28.94,24.696z M27.087,29.075
			c-1.086,0-1.977,0.891-1.977,1.977c0,1.087,0.891,1.977,1.977,1.977c1.087,0,1.977-0.89,1.977-1.977
			C29.064,29.965,28.174,29.075,27.087,29.075z M60.75,36c0,13.664-11.086,24.75-24.75,24.75c-13.664,0-24.75-11.086-24.75-24.75
			c0-13.664,11.086-24.75,24.75-24.75C49.653,11.25,60.75,22.336,60.75,36z M58.763,36c0-12.67-10.093-22.762-22.763-22.762
			S13.237,23.33,13.237,36S23.33,58.762,36,58.762S58.763,48.67,58.763,36z M46.879,31.052c0-1.086-0.891-1.977-1.977-1.977
			c-1.088,0-1.978,0.891-1.978,1.977c0,1.087,0.89,1.977,1.978,1.977C45.988,33.029,46.879,32.139,46.879,31.052z M43.049,24.707
			l6.563,4.43l1.108-1.635l-6.563-4.431L43.049,24.707z M48.867,45.896c0,2.773-2.174,4.947-4.949,4.947H28.082
			c-2.775,0-4.948-2.174-4.948-4.947s2.173-4.948,4.948-4.948h15.836C46.683,40.948,48.867,43.123,48.867,45.896z M29.054,46.891
			h-3.757c0.403,1.189,1.387,1.977,2.774,1.977h0.983V46.891z M29.075,42.926h-0.994c-1.191,0-2.381,0.786-2.775,1.977h3.758h0.011
			V42.926z M35.006,46.891h-3.954v1.977h3.954V46.891z M35.006,42.926h-3.954v1.977h3.954V42.926z M40.947,46.891h-3.954v1.977
			h3.954V46.891z M40.947,42.926h-3.954v1.977h3.954V42.926z M46.683,46.891h-3.757v1.977h0.992
			C45.306,48.867,46.289,48.069,46.683,46.891z M46.693,44.902c-0.394-1.19-1.388-1.977-2.775-1.977h-0.982v1.977H46.693z"/>
	</g>
	<circle fill="none" stroke="#0A4ECB" stroke-width="5" cx="36" cy="36" r="32.5"/>
</g>
</svg>
