<?xml version="1.0" encoding="utf-8"?>
<!-- Generator: Adobe Illustrator 14.0.0, SVG Export Plug-In . SVG Version: 6.00 Build 43363)  -->
<!DOCTYPE svg PUBLIC "-//W3C//DTD SVG 1.1//EN" "http://www.w3.org/Graphics/SVG/1.1/DTD/svg11.dtd">
<svg version="1.1" id="Layer_1" xmlns="http://www.w3.org/2000/svg" xmlns:xlink="http://www.w3.org/1999/xlink" x="0px" y="0px"
	 width="72px" height="72px" viewBox="0 0 72 72" enable-background="new 0 0 72 72" xml:space="preserve">
<g>
	<circle fill="none" stroke="#4D4D4D" stroke-width="5" cx="36" cy="36" r="32.5"/>
	<g>
		<path fill-rule="evenodd" clip-rule="evenodd" fill="#4D4D4D" d="M11,22.218c7.666,0,16.651,0,25.977,0
			c6.02,0,13.363-0.344,19.531,0c2.287,0.127,3.872,0.531,4.297,2.344c0.027,0.116,0.018,0.234,0.195,0.195c0,0.456,0,0.912,0,1.367
			c-0.291,0.296-0.314,0.857-0.391,1.367c-0.85,0.71-1.72,1.037-2.93,1.172c-1.209,0.136-2.596,0-3.906,0
			c-2.62,0-5.463,0.188-7.813,0c-1.909-0.152-4.028-0.704-6.25-0.977c-2.684-0.329-5.295-0.533-7.617-1.172
			c-1.18-0.325-2.721-0.775-4.102-1.172c-1.819-0.521-3.66-1.565-5.469-1.172c-0.464,1.072,1.695,1.452,2.734,1.758
			c1.815,0.535,3.742,1.003,5.664,1.563c0.572,0.167,1.157,0.403,1.758,0.586c0.677,0.206,1.445,0.17,1.953,0.391
			c0.922,0.401,1.893,1.39,1.953,2.734c0.074,1.638-1.354,3.142-2.539,3.321c-1.025,0.154-2.395-0.41-3.711-0.781
			c-1.124-0.317-2.255-0.775-3.32-0.977c-3.968-0.753-6.288,2.235-10.156,2.344c-0.479,0.497-2.199-0.246-2.148,0.781
			c-0.053,0.899,1.668,0.644,2.539,0.586c0.868-0.059,1.833-0.362,2.539-0.586c1.505-0.479,2.913-1.456,4.297-1.758
			c1.398-0.306,2.55-0.132,4.102,0.195c0.545,0.527-0.478,0.35-0.586,0.781c-1.366,0.892-2.372,3.264-1.367,5.273
			c0.167,0.332,0.602,0.984,0.977,1.367c0.253,0.258,0.835,0.295,0.781,0.781c-2.886,1.255-1.885,6.847,1.563,7.031
			c-2.171,0.352-4.76,0.195-7.422,0.195c-3.458,0-7.039,0.267-9.375-0.586c-0.754-0.743-1.375-1.62-1.758-2.734
			C11,38.364,11,30.292,11,22.218z"/>
		<path fill-rule="evenodd" clip-rule="evenodd" fill="#4D4D4D" d="M37.172,28.859c3.038,0.217,5.943,0.567,8.594,1.172
			c1.561,1.031,1.759,4.078,0.195,5.274c-2.871,1.014-6.413-0.24-9.375-0.391c-0.937-0.068,0.417-0.586,0.391-0.977
			c0.438-0.213,0.344-0.959,0.781-1.172C37.871,31.155,37.719,29.809,37.172,28.859z"/>
		<path fill-rule="evenodd" clip-rule="evenodd" fill="#4D4D4D" d="M54.555,31.203c0.166-0.036,0.184,0.077,0.195,0.195
			c0.819,1.386,2.049,3.329,3.125,5.469c0.961,1.912,2.142,4.291,2.344,6.25c0.076,0.733,0.109,1.705,0,2.344
			c-0.476,2.791-3.992,5.479-7.617,4.102c-0.454-0.173-1.107-0.404-1.367-0.586c-0.674-0.474-1.951-2.355-2.148-3.516
			c-0.108-0.637-0.065-1.622,0-2.344c0.178-1.969,1.377-4.089,2.344-6.055c0.488-0.993,0.889-1.882,1.367-2.734
			C53.494,33.084,53.998,32.295,54.555,31.203z M53.773,40.188c-0.717,0-1.432,0-2.148,0c0,0.455,0,0.911,0,1.367
			c0.722,0.124,1.945-0.254,2.344,0.195c0,0.716,0,1.432,0,2.148c0.455,0,0.912,0,1.367,0c0-0.781,0-1.563,0-2.344
			c0.781,0,1.563,0,2.344,0c0-0.456,0-0.912,0-1.367c-0.774-0.072-1.871,0.179-2.344-0.195c0-0.717,0-1.433,0-2.148
			c-0.455,0-0.912,0-1.367,0C53.896,38.617,54.148,39.715,53.773,40.188z M51.625,46.828c2.018,0,4.037,0,6.055,0
			c0-0.521,0-1.042,0-1.563c-2.018,0-4.037,0-6.055,0C51.625,45.786,51.625,46.307,51.625,46.828z"/>
		<path fill-rule="evenodd" clip-rule="evenodd" fill="#4D4D4D" d="M27.797,40.578c-0.333-1.066-0.719-1.297-0.586-2.539
			c0.118-1.098,1.164-2.547,2.539-2.539c3.285,0.016,9.814,1.152,12.305,1.563c0.845,0.783,1.45,1.805,1.563,3.32
			c-0.428,1.266-1.273,2.111-2.539,2.539c-2.261-0.177-4.719-0.467-7.031-0.781C31.728,41.824,29.344,41.842,27.797,40.578z"/>
		<path fill-rule="evenodd" clip-rule="evenodd" fill="#4D4D4D" d="M38.734,45.461c0.261,2.018-0.617,2.898-1.758,3.516
			c-2.364-0.18-5.163-0.084-7.422-0.781c-0.972-0.301-1.999-1.024-1.953-2.734c0.024-1.185,1.089-2.395,2.734-2.539
			c0.781-0.069,2.869,0.414,4.102,0.586c1.226,0.171,2.102,0.158,2.93,0.586C38.164,44.505,38.158,44.816,38.734,45.461z"/>
	</g>
</g>
</svg>
