<?xml version="1.0" encoding="utf-8"?>
<!-- Generator: Adobe Illustrator 14.0.0, SVG Export Plug-In . SVG Version: 6.00 Build 43363)  -->
<!DOCTYPE svg PUBLIC "-//W3C//DTD SVG 1.1//EN" "http://www.w3.org/Graphics/SVG/1.1/DTD/svg11.dtd">
<svg version="1.1" id="Layer_1" xmlns="http://www.w3.org/2000/svg" xmlns:xlink="http://www.w3.org/1999/xlink" x="0px" y="0px"
	 width="72px" height="72px" viewBox="0 0 72 72" enable-background="new 0 0 72 72" xml:space="preserve">
<g>
	<path fill="#4D4D4D" d="M51.845,18.413C49.645,15.66,43.928,11,36.463,11c-4.992,0-9.741,2.087-14.117,6.202
		c-0.007,0.008-0.015,0.015-0.022,0.022c-4.267,4.39-3.709,8.445-3.003,13.581c0.043,0.316,0.088,0.636,0.131,0.961
		c0.117,0.873-0.647,2.22-1.386,3.521c-1.11,1.957-2.258,3.98-0.855,4.936c2.396,1.635,2.813,4.85,3.216,7.959
		c0.096,0.74,0.195,1.504,0.319,2.246c0.213,1.281,1.294,1.904,3.305,1.904c0.894,0,1.849-0.111,2.772-0.217
		c0.792-0.092,1.54-0.178,2.138-0.178c0.334,0,0.596,0.025,0.799,0.08c2.416,0.656,4.526,5.539,5.289,8.464
		c0.062,0.237,0.245,0.425,0.48,0.491C35.59,60.991,35.654,61,35.717,61c0.175,0,0.347-0.067,0.478-0.191l12.38-11.815
		c0.191-0.183,0.263-0.459,0.181-0.711c-1.092-3.42,1.18-6.758,3.184-9.705c0.875-1.285,1.701-2.498,2.267-3.694
		C56.813,29.366,54.935,22.28,51.845,18.413z M32.311,37.222l5.636-10.163H27.271l12.025-12.836l-5.243,9.5h10.675L32.311,37.222z"
		/>
	<circle fill="none" stroke="#4D4D4D" stroke-width="5" cx="36" cy="36" r="32.5"/>
</g>
</svg>
