<?xml version="1.0" encoding="utf-8"?>
<!-- Generator: Adobe Illustrator 14.0.0, SVG Export Plug-In . SVG Version: 6.00 Build 43363)  -->
<!DOCTYPE svg PUBLIC "-//W3C//DTD SVG 1.1//EN" "http://www.w3.org/Graphics/SVG/1.1/DTD/svg11.dtd">
<svg version="1.1" id="Layer_1" xmlns="http://www.w3.org/2000/svg" xmlns:xlink="http://www.w3.org/1999/xlink" x="0px" y="0px"
	 width="72px" height="72px" viewBox="0 0 72 72" enable-background="new 0 0 72 72" xml:space="preserve">
<g>
	<g>
		<g>
			<path fill="#4D4D4D" d="M52.758,33.282c-0.812,0-1.44,0.626-1.44,1.442v19.697H41.099v-8.043c0-0.755-0.629-1.414-1.389-1.414
				h-7.389c-0.813,0-1.468,0.659-1.468,1.414v8.043H20.661V35.378c0-0.761-0.628-1.392-1.441-1.392c-0.76,0-1.388,0.631-1.388,1.392
				v20.486c0,0.761,0.628,1.392,1.388,1.392h13.102c0.76,0,1.389-0.631,1.389-1.392V47.82h4.559v8.044
				c0,0.761,0.629,1.392,1.441,1.392h13.048c0.76,0,1.389-0.631,1.389-1.392v-21.14C54.146,33.908,53.518,33.282,52.758,33.282z"/>
			<path fill="#4D4D4D" d="M60.593,34.405l-11.372-11.42v-7.786c0-0.811-0.655-1.437-1.468-1.437c-0.76,0-1.389,0.626-1.389,1.437
				v4.93l-9.38-9.436c-0.287-0.291-0.629-0.447-0.969-0.447c-0.393,0-0.734,0.162-1.022,0.447L11.438,34.249
				c-0.565,0.564-0.603,1.47,0,1.989c0.523,0.604,1.426,0.565,1.991,0l22.586-22.532l22.533,22.745
				c0.234,0.234,0.576,0.369,1.022,0.369c0.394,0,0.733-0.135,1.022-0.369C61.116,35.926,61.155,34.976,60.593,34.405z"/>
		</g>
	</g>
	<g>
		<path fill="#4D4D4D" d="M36.427,25.784c-0.299-0.082-0.61,0.095-0.693,0.395l-0.271,0.985c-0.067,0.244-0.365,0.375-0.665,0.292
			l-2.651-0.729c-0.899-0.248-1.832,0.283-2.078,1.183l-0.188,0.68c-0.082,0.3-0.394,0.477-0.693,0.395l-1.902-0.523
			c-0.899-0.247-1.794,0.146-1.995,0.876l-0.215,0.782c-0.082,0.3,0.095,0.611,0.395,0.693c0.299,0.082,0.611-0.095,0.693-0.395
			l0.215-0.782c0.013-0.048,0.236-0.19,0.608-0.088l1.903,0.523c0.9,0.247,1.832-0.283,2.08-1.183l0.187-0.68
			c0.083-0.3,0.393-0.477,0.692-0.394l2.651,0.728c0.9,0.248,1.82-0.237,2.052-1.08l0.271-0.985
			C36.904,26.178,36.727,25.866,36.427,25.784z"/>
		<g>
			<path fill="#4D4D4D" d="M43.583,36.775c0.047-0.166-0.113-0.211-0.113-0.211l-15.769-4.335c0,0-0.119-0.032-0.148,0.075
				c-0.284,1.031-0.724,2.635-1.017,3.699c-0.028,0.102,0.097,0.136,0.097,0.136l15.762,4.333c0,0,0.16,0.044,0.215-0.158
				C42.806,39.607,43.341,37.658,43.583,36.775z"/>
			<path fill="#4D4D4D" d="M25.101,35.641c-0.02,0.072,0.047,0.09,0.047,0.09l0.518,0.143c0,0,0.057,0.016,0.077-0.056
				c0.293-1.065,1.035-3.765,1.035-3.765s0.019-0.071-0.025-0.083c-0.136-0.037-0.408-0.112-0.544-0.15
				c-0.054-0.014-0.073,0.058-0.073,0.058S25.394,34.575,25.101,35.641z"/>
			<path fill="#4D4D4D" d="M25.335,31.721c0.036-0.131-0.101-0.169-0.101-0.169l-0.095-0.026c-0.588-0.162-1.202,0.188-1.364,0.775
				l-0.486,1.768c-0.162,0.589,0.187,1.202,0.775,1.364l0.102,0.027c0,0,0.13,0.036,0.165-0.091
				C24.613,34.351,25.046,32.772,25.335,31.721z"/>
			<path fill="#4D4D4D" d="M47.935,37.792c0,0-2.177-0.599-2.919-0.802c-0.173-0.048-0.229,0.154-0.229,0.154l-0.971,3.53
				c0,0-0.048,0.175,0.106,0.218c0.734,0.201,2.938,0.807,2.938,0.807c0.588,0.162,1.201-0.187,1.363-0.775l0.485-1.768
				C48.872,38.568,48.522,37.954,47.935,37.792z"/>
		</g>
	</g>
	<circle fill="none" stroke="#4D4D4D" stroke-width="5" cx="36" cy="36" r="32.5"/>
</g>
</svg>
