<?xml version="1.0" encoding="utf-8"?>
<!-- Generator: Adobe Illustrator 14.0.0, SVG Export Plug-In . SVG Version: 6.00 Build 43363)  -->
<!DOCTYPE svg PUBLIC "-//W3C//DTD SVG 1.1//EN" "http://www.w3.org/Graphics/SVG/1.1/DTD/svg11.dtd">
<svg version="1.1" id="Layer_1" xmlns="http://www.w3.org/2000/svg" xmlns:xlink="http://www.w3.org/1999/xlink" x="0px" y="0px"
	 width="72px" height="72px" viewBox="0 0 72 72" enable-background="new 0 0 72 72" xml:space="preserve">
<g>
	<g>
		<path fill="#4D4D4D" d="M52.34,39.84c2.373,0,4.297,1.925,4.297,4.298s-1.924,4.298-4.297,4.298s-4.299-1.925-4.299-4.298
			S49.967,39.84,52.34,39.84z M34.829,39.371l-3.903-3.901l1.325-1.327l3.903,3.902L34.829,39.371z M60.758,51.49
			c-1.117-2.184-2.238-4.368-3.355-6.552c-0.063,1.751-1.014,3.274-2.42,4.133c0.244,0.479,0.488,0.957,0.734,1.434
			c-2.154,0-4.309,0-6.463,0c0.018-0.27,0.004-0.539-0.021-0.808c0.092-0.549-0.016-1.146-0.432-1.684
			c-0.16-0.209-0.332-0.407-0.496-0.611c-0.029-0.034-0.055-0.068-0.086-0.102c-2.699-3.28-5.953-6.002-9.598-8.198
			c-2.242-1.351-4.272,2.148-2.039,3.493c1.666,1.008,3.223,2.136,4.672,3.374l-12.26,0.012c-1.255-1.134-2.51-2.266-3.764-3.401
			c-0.775-0.701-2.107-0.86-2.86,0c-1.967,2.245-3.933,4.497-5.898,6.74c-0.323,0.369-0.481,0.771-0.519,1.168
			c-0.999,0-1.997,0-2.996,0c-2.609,0-2.609,4.046,0,4.046c5.127,0,10.252,0,15.377,0v0.019l16.745,0.01
			c0.1,0,0.193-0.01,0.291-0.015c4.475,0,8.953,0,13.428,0c0.035,0.001,0.064,0.001,0.094,0c0.035,0,0.074,0,0.109,0
			c1.023,0,1.641-0.625,1.861-1.386C61.057,52.675,61.066,52.093,60.758,51.49z M20.811,50.488c1.051-1.201,2.102-2.402,3.153-3.604
			c1.21,1.092,2.418,2.184,3.627,3.275c0.158,0.143,0.323,0.245,0.49,0.328C25.658,50.488,23.235,50.488,20.811,50.488z
			 M20.569,30.309h-2.275v1.265h11.123v-1.265h-2.275v-1.423h7.837V15.438H13.491v13.447h7.078V30.309z M25.624,29.55h-3.539v-0.665
			h3.539V29.55z M20.569,27.368h-5.563V16.954h18.455v10.414h-6.32H20.569z"/>
	</g>
	<circle fill="none" stroke="#4D4D4D" stroke-width="5" cx="36" cy="36" r="32.5"/>
</g>
</svg>
