<?xml version="1.0" encoding="utf-8"?>
<!-- Generator: Adobe Illustrator 14.0.0, SVG Export Plug-In . SVG Version: 6.00 Build 43363)  -->
<!DOCTYPE svg PUBLIC "-//W3C//DTD SVG 1.1//EN" "http://www.w3.org/Graphics/SVG/1.1/DTD/svg11.dtd">
<svg version="1.1" id="Layer_1" xmlns="http://www.w3.org/2000/svg" xmlns:xlink="http://www.w3.org/1999/xlink" x="0px" y="0px"
	 width="72px" height="72px" viewBox="0 0 72 72" enable-background="new 0 0 72 72" xml:space="preserve">
<g>
	<g>
		<g>
			<path fill="#4D4D4D" d="M36.034,36.237V19.628c0-1.636-1.326-2.962-2.963-2.962h-16.61c-1.636,0-2.96,1.326-2.96,2.962v16.607
				c0,1.635,1.325,2.963,2.96,2.963h16.608C34.708,39.2,36.034,37.874,36.034,36.237z M20.145,36.108
				c-1.225,0-2.222-0.994-2.222-2.221c0-1.224,0.997-2.222,2.222-2.222c1.227,0,2.222,0.997,2.222,2.222
				C22.367,35.114,21.373,36.108,20.145,36.108z M20.145,30.184c-1.225,0-2.222-0.997-2.222-2.221c0-1.228,0.997-2.222,2.222-2.222
				c1.227,0,2.222,0.995,2.222,2.222C22.367,29.188,21.373,30.184,20.145,30.184z M20.145,24.259c-1.225,0-2.222-0.995-2.222-2.221
				c0-1.226,0.997-2.223,2.222-2.223c1.227,0,2.222,0.997,2.222,2.223C22.367,23.264,21.373,24.259,20.145,24.259z M29.033,36.108
				c-1.225,0-2.222-0.994-2.222-2.221c0-1.224,0.997-2.222,2.222-2.222c1.228,0,2.222,0.997,2.222,2.222
				C31.255,35.114,30.261,36.108,29.033,36.108z M29.033,30.184c-1.225,0-2.222-0.997-2.222-2.221c0-1.228,0.997-2.222,2.222-2.222
				c1.228,0,2.222,0.995,2.222,2.222C31.255,29.188,30.261,30.184,29.033,30.184z M29.033,24.259c-1.225,0-2.222-0.995-2.222-2.221
				c0-1.226,0.997-2.223,2.222-2.223c1.228,0,2.222,0.997,2.222,2.223C31.255,23.264,30.261,24.259,29.033,24.259z"/>
			<path fill="#4D4D4D" d="M62.625,40.484L50.84,28.782c-1.159-1.152-3.035-1.146-4.188,0.015L34.948,40.581
				c-1.153,1.159-1.146,3.035,0.014,4.189l11.786,11.703c1.16,1.152,3.035,1.146,4.188-0.014l11.705-11.785
				C63.792,43.515,63.787,41.638,62.625,40.484z M48.092,33.623c0.863-0.87,2.273-0.875,3.144-0.011
				c0.87,0.865,0.874,2.272,0.011,3.143c-0.865,0.87-2.271,0.875-3.143,0.011C47.234,35.901,47.229,34.493,48.092,33.623z
				 M42.896,45.163c-0.864,0.869-2.271,0.875-3.142,0.011c-0.869-0.863-0.877-2.272-0.012-3.144c0.863-0.867,2.272-0.874,3.143-0.01
				C43.754,42.885,43.759,44.293,42.896,45.163z M43.916,37.827c0.865-0.87,2.274-0.875,3.143-0.012
				c0.869,0.864,0.875,2.272,0.011,3.143c-0.862,0.87-2.271,0.876-3.142,0.012C43.059,40.106,43.054,38.696,43.916,37.827z
				 M49.201,51.426c-0.863,0.87-2.27,0.875-3.143,0.011c-0.869-0.863-0.874-2.271-0.011-3.143c0.862-0.869,2.274-0.874,3.143-0.012
				C50.061,49.147,50.064,50.557,49.201,51.426z M53.377,47.222c-0.865,0.869-2.271,0.876-3.143,0.01
				c-0.869-0.862-0.875-2.271-0.012-3.141c0.864-0.871,2.272-0.875,3.142-0.013C54.236,44.942,54.241,46.351,53.377,47.222z
				 M57.552,43.017c-0.864,0.87-2.271,0.877-3.142,0.012c-0.87-0.864-0.877-2.272-0.012-3.143c0.863-0.869,2.273-0.875,3.142-0.012
				C58.411,40.739,58.416,42.147,57.552,43.017z"/>
		</g>
	</g>
	<circle fill="none" stroke="#4D4D4D" stroke-width="5" cx="36" cy="36" r="32.5"/>
</g>
</svg>
