<?xml version="1.0" encoding="utf-8"?>
<!-- Generator: Adobe Illustrator 14.0.0, SVG Export Plug-In . SVG Version: 6.00 Build 43363)  -->
<!DOCTYPE svg PUBLIC "-//W3C//DTD SVG 1.1//EN" "http://www.w3.org/Graphics/SVG/1.1/DTD/svg11.dtd">
<svg version="1.1" id="Layer_1" xmlns="http://www.w3.org/2000/svg" xmlns:xlink="http://www.w3.org/1999/xlink" x="0px" y="0px"
	 width="72px" height="72px" viewBox="0 0 72 72" enable-background="new 0 0 72 72" xml:space="preserve">
<g>
	<g>
		<path fill="#4D4D4D" d="M36.762,31.502V16.88c0-3.244-2.614-5.88-5.855-5.88c-2.439,0-4.525,1.49-5.418,3.607
			c-0.163-0.026-0.319-0.042-0.493-0.042c-0.397,0-0.771,0.077-1.122,0.218l-3.236-1.925c-0.666-0.394-1.528-0.176-1.923,0.49
			l-0.445,0.745c-0.395,0.666-0.176,1.529,0.49,1.925L22,17.946c0.02,0.187,0.058,0.366,0.109,0.544l-3.267,4.604
			c-0.217,0.305-0.303,0.683-0.238,1.05c0.061,0.366,0.269,0.694,0.574,0.909l0.725,0.513c0.631,0.443,1.504,0.295,1.953-0.334
			l3.228-4.522v14.044l-1.036,0.37c-2.694,0.97-4.487,3.525-4.487,6.387v5.758c0,2.256,0.676,4.465,1.939,6.334L26.505,61h24.854
			l2.381-13.502c1.121-6.363-2.88-12.512-9.155-14.063L36.762,31.502z M27.135,19.707l7.362-4.736
			c0.307,0.569,0.528,1.222,0.528,1.913v1.475l-8.209,5.695v-4.09C26.977,19.881,27.046,19.797,27.135,19.707z M35.025,26.009
			l-3.063-3.243l3.063-2.158V26.009z M26.816,26.304l3.536-2.47l3.533,3.707h-7.069V26.304z M30.921,12.841
			c0.866,0,1.671,0.274,2.324,0.74l-5.273,3.413c-0.119-0.596-0.414-1.13-0.828-1.545C27.725,13.928,29.199,12.841,30.921,12.841z"
			/>
	</g>
	<circle fill="none" stroke="#4D4D4D" stroke-width="5" cx="36" cy="36" r="32.5"/>
</g>
</svg>
