<?xml version="1.0" encoding="utf-8"?>
<!-- Generator: Adobe Illustrator 14.0.0, SVG Export Plug-In . SVG Version: 6.00 Build 43363)  -->
<!DOCTYPE svg PUBLIC "-//W3C//DTD SVG 1.1//EN" "http://www.w3.org/Graphics/SVG/1.1/DTD/svg11.dtd">
<svg version="1.1" id="Layer_1" xmlns="http://www.w3.org/2000/svg" xmlns:xlink="http://www.w3.org/1999/xlink" x="0px" y="0px"
	 width="72px" height="72px" viewBox="0 0 72 72" enable-background="new 0 0 72 72" xml:space="preserve">
<g>
	<path fill="#4D4D4D" d="M27.483,32.537c0,3.724,2.87,6.54,2.87,7.084c0,0.546,0,21.326,0,21.326c0,1.535,0.749,2.303,2.247,2.303
		s2.247-0.768,2.247-2.303V40.223h2.306v20.725c0,1.535,0.749,2.303,2.247,2.303s2.247-0.768,2.247-2.303c0,0,0-20.78,0-21.326
		c0-0.544,2.854-3.36,2.854-7.084c0-3.726-2.31-6.898-2.31-6.898h0.554c0,0,2.256,3.173,2.256,6.898
		c0,3.724-2.256,5.821-2.256,5.821c0,0.804,0.273,1.389,0.82,1.754c0.549,0.365,1.115,0.365,1.701,0
		c0.584-0.365,0.879-0.95,0.879-1.754V24.651c0-1.463-0.496-2.596-1.48-3.399c-0.99-0.805-2.361-1.208-4.112-1.208H31.56
		c-1.683,0-3.055,0.366-4.115,1.099c-1.06,0.729-1.589,1.864-1.589,3.397v14.585c0,0.658,0.293,1.134,0.878,1.426
		c0.585,0.293,1.153,0.293,1.7,0c0.547-0.292,0.821-0.768,0.821-1.426c0,0-2.29-2.864-2.29-6.588c0-3.726,2.29-6.898,2.29-6.898
		h0.554C29.809,25.639,27.483,28.812,27.483,32.537z"/>
	<path fill="#4D4D4D" d="M31.228,13.41c0,1.279,0.459,2.376,1.372,3.291c0.913,0.912,2.011,1.369,3.291,1.369
		c1.28,0,2.377-0.457,3.291-1.369c0.913-0.915,1.371-2.03,1.371-3.346c0-1.243-0.458-2.32-1.371-3.234S37.17,8.75,35.89,8.75
		c-1.279,0-2.377,0.457-3.291,1.371S31.228,12.131,31.228,13.41z"/>
</g>
<circle fill="none" stroke="#4D4D4D" stroke-width="5" cx="36" cy="36" r="32.5"/>
</svg>
