<?xml version="1.0" encoding="utf-8"?>
<!-- Generator: Adobe Illustrator 14.0.0, SVG Export Plug-In . SVG Version: 6.00 Build 43363)  -->
<!DOCTYPE svg PUBLIC "-//W3C//DTD SVG 1.1//EN" "http://www.w3.org/Graphics/SVG/1.1/DTD/svg11.dtd">
<svg version="1.1" id="Layer_1" xmlns="http://www.w3.org/2000/svg" xmlns:xlink="http://www.w3.org/1999/xlink" x="0px" y="0px"
	 width="72px" height="72px" viewBox="0 0 72 72" enable-background="new 0 0 72 72" xml:space="preserve">
<g>
	<g>
		<path fill="#4D4D4D" d="M49.789,13.876c-3.332,0-6.057,2.726-6.057,6.057s2.725,6.058,6.057,6.058s6.059-2.726,6.059-6.058
			S53.121,13.876,49.789,13.876z M49.789,23.788c-2.119,0-3.854-1.734-3.854-3.855c0-2.12,1.734-3.854,3.854-3.854
			c2.121,0,3.855,1.735,3.855,3.854C53.645,22.054,51.91,23.788,49.789,23.788z"/>
		<path fill="#4D4D4D" d="M49.789,11.866c0.607,0,1.102-0.496,1.102-1.102v-2.23c0-0.605-0.494-1.101-1.102-1.101
			c-0.605,0-1.102,0.496-1.102,1.101v2.23C48.688,11.397,49.184,11.866,49.789,11.866z"/>
		<path fill="#4D4D4D" d="M61.188,18.832h-2.229c-0.605,0-1.102,0.496-1.102,1.101c0,0.606,0.496,1.101,1.102,1.101h2.229
			c0.607,0,1.102-0.495,1.102-1.101C62.289,19.328,61.795,18.832,61.188,18.832z"/>
		<path fill="#4D4D4D" d="M49.789,28c-0.605,0-1.102,0.496-1.102,1.101v2.23c0,0.605,0.496,1.101,1.102,1.101
			c0.607,0,1.102-0.496,1.102-1.101v-2.23C50.891,28.469,50.396,28,49.789,28z"/>
		<path fill="#4D4D4D" d="M41.723,19.933c0-0.605-0.496-1.101-1.102-1.101h-2.23c-0.605,0-1.102,0.496-1.102,1.101
			c0,0.606,0.496,1.101,1.102,1.101h2.23C41.254,21.034,41.723,20.539,41.723,19.933z"/>
		<path fill="#4D4D4D" d="M56.26,14.564c0.275,0,0.551-0.11,0.771-0.331l1.598-1.597c0.439-0.44,0.439-1.129,0-1.569
			c-0.441-0.44-1.131-0.44-1.57,0l-1.598,1.597c-0.439,0.44-0.439,1.128,0,1.569C55.709,14.454,55.984,14.564,56.26,14.564z"/>
		<path fill="#4D4D4D" d="M57.031,25.633c-0.441-0.441-1.129-0.441-1.57,0c-0.439,0.44-0.439,1.129,0,1.569l1.598,1.597
			c0.221,0.22,0.496,0.331,0.771,0.331s0.551-0.11,0.77-0.331c0.441-0.44,0.441-1.129,0-1.569L57.031,25.633z"/>
		<path fill="#4D4D4D" d="M42.549,25.633l-1.598,1.597c-0.439,0.44-0.439,1.129,0,1.569c0.221,0.22,0.496,0.331,0.771,0.331
			s0.551-0.11,0.77-0.331l1.598-1.597c0.441-0.44,0.441-1.129,0-1.569C43.678,25.192,42.961,25.192,42.549,25.633z"/>
		<path fill="#4D4D4D" d="M42.549,14.234c0.193,0.22,0.496,0.331,0.771,0.331s0.549-0.11,0.77-0.331
			c0.441-0.441,0.441-1.129,0-1.569l-1.598-1.597c-0.439-0.44-1.127-0.44-1.568,0s-0.441,1.129,0,1.569L42.549,14.234z"/>
	</g>
	<g>
		<path fill="#4D4D4D" d="M35.287,26.178c-0.392-0.107-0.799,0.125-0.909,0.518l-0.356,1.294c-0.086,0.321-0.478,0.494-0.871,0.385
			l-3.484-0.958c-1.182-0.325-2.403,0.373-2.729,1.554l-0.248,0.894c-0.105,0.395-0.514,0.625-0.912,0.519l-2.498-0.688
			c-1.18-0.325-2.357,0.19-2.619,1.151l-0.284,1.027c-0.108,0.395,0.126,0.804,0.519,0.91c0.393,0.109,0.804-0.124,0.91-0.517
			l0.284-1.028c0.016-0.063,0.308-0.249,0.798-0.115l2.499,0.688c1.186,0.325,2.409-0.373,2.735-1.553l0.24-0.896
			c0.113-0.393,0.52-0.625,0.912-0.516l3.484,0.956c1.181,0.326,2.389-0.312,2.693-1.419l0.357-1.293
			C35.916,26.695,35.683,26.286,35.287,26.178z"/>
		<g>
			<path fill="#4D4D4D" d="M44.691,40.617c0.059-0.219-0.15-0.276-0.15-0.276l-20.714-5.695c0,0-0.157-0.041-0.193,0.099
				c-0.377,1.354-0.953,3.461-1.339,4.86c-0.034,0.134,0.13,0.177,0.13,0.177l20.707,5.693c0,0,0.209,0.058,0.285-0.207
				C43.666,44.339,44.375,41.776,44.691,40.617z"/>
			<path fill="#4D4D4D" d="M20.408,39.127c-0.022,0.094,0.063,0.12,0.063,0.12l0.683,0.186c0,0,0.072,0.021,0.102-0.074
				c0.384-1.399,1.36-4.945,1.36-4.945s0.021-0.094-0.034-0.109c-0.179-0.049-0.537-0.148-0.715-0.197
				c-0.069-0.019-0.095,0.076-0.095,0.076S20.794,37.729,20.408,39.127z"/>
			<path fill="#4D4D4D" d="M20.718,33.977c0.047-0.171-0.132-0.221-0.132-0.221l-0.125-0.034c-0.775-0.213-1.578,0.247-1.794,1.017
				l-0.637,2.323c-0.213,0.772,0.245,1.58,1.02,1.793l0.135,0.036c0,0,0.169,0.048,0.213-0.121
				C19.769,37.433,20.338,35.358,20.718,33.977z"/>
			<path fill="#4D4D4D" d="M50.406,41.953c0,0-2.859-0.786-3.834-1.055c-0.229-0.062-0.301,0.204-0.301,0.204l-1.275,4.638
				c0,0-0.063,0.23,0.141,0.285c0.967,0.265,3.859,1.062,3.859,1.062c0.773,0.213,1.576-0.246,1.793-1.021l0.637-2.322
				C51.639,42.972,51.18,42.166,50.406,41.953z"/>
		</g>
	</g>
	<circle fill="none" stroke="#4D4D4D" stroke-width="5" cx="36" cy="36" r="32.5"/>
	<g>
		<g>
			<path fill="#4D4D4D" d="M26.642,49.334c0.745,2.873-0.068,6.001-0.079,6.049c0.002-0.015,0.02-0.239,0.02-0.239
				c0.239-1.931-0.343-3.02-0.343-3.02c0.393,1.67-0.332,2.622-0.758,3.02c-0.159,0.148-0.277,0.274-0.277,0.274
				c-0.013,0-0.023-0.2-0.032-0.274c-0.286-2.357,1.067-5.359,1.067-5.359c-0.866,0.77-1.391,3.273-1.621,4.65
				c0.275-2.321-0.18-3.391-0.18-3.391c0.18,1.941-0.271,3.535-0.461,4.1c-0.047,0.142-0.079,0.274-0.079,0.274
				c-0.021,0-0.042-0.194-0.061-0.274c-0.325-1.404-0.164-4.865-0.164-4.865c-0.323,0.808-0.518,2.467-0.621,3.67
				c0.001-2.041-0.64-3.265-0.64-3.265c0.676,2.61-0.225,4.32-0.225,4.32c0.18-2.34-0.45-2.925-0.45-2.925
				c0.465,0.969-0.585,2.881-0.585,2.881c-0.405-2.521,0.585-6.076,0.585-6.076c-0.6,0.845-0.951,2.959-1.136,4.496
				c-0.02-1.952-0.835-2.696-0.835-2.696c0.819,1.98-0.01,4.411-0.01,4.411c0.091-2.341-0.495-3.466-0.495-3.466
				c0.074,1.033-0.759,2.881-1.062,3.514c-0.066,0.139-0.108,0.275-0.108,0.275c-0.018,0-0.032-0.197-0.046-0.275
				c-0.302-1.738,0.315-5.449,0.315-5.449c-0.708,0.552-1.141,4.47-1.239,5.45c-0.014,0.141-0.021,0.274-0.021,0.274
				c-0.004,0-0.009-0.2-0.014-0.274c-0.093-1.521-0.083-3.21-0.083-3.21c-0.298,0.327-0.532,3.484-0.534,3.484l0.008-0.275
				c0.194-3.932-0.502-5.224-0.502-5.224c0.341,1.932-0.275,4.469-0.479,5.224c-0.037,0.143-0.062,0.275-0.062,0.275
				c-0.045,0-0.083-0.193-0.116-0.275c-0.473-1.159,0.116-3.829,0.116-3.829c-0.544,0.699-0.729,1.932-0.79,2.854
				c0.05-4.729-0.335-6.274-0.335-6.274c0.276,1.705-0.319,6.203-0.464,7.249c-0.009,0.062-0.008,0.056,0,0h-0.012
				c0.107-1.592-0.425-4.459-0.425-4.459c0,1.25-0.287,3.711-0.378,4.459c-0.017,0.141-0.027,0.275-0.027,0.275
				c-0.046-0.092-0.068-0.199-0.099-0.275c-0.687-2.037,0.099-5.449,0.099-5.449c-1.045,1.394-1.158,4.585-1.169,5.449
				c-0.001,0.066-0.001,0.085,0,0c0,0,0.053,0.331-0.093,0c-0.502-1.085,0.12-4.459,0.12-4.459
				c-0.617,0.655-0.868,3.623-0.923,4.459c-0.009,0.14-0.021,0.275-0.021,0.275c-0.016,0-0.032-0.201-0.045-0.275
				c-0.489-2.872,0.962-6.052,0.962-6.052c-1.44,0.899-1.813,6.327-1.813,6.327l2,2.476h15.605v-2.751l0,0
				C27.634,50.105,26.642,49.334,26.642,49.334z"/>
		</g>
	</g>
	<g>
		<g>
			<path fill="#4D4D4D" d="M44.104,49.334c0.744,2.873-0.068,6.001-0.08,6.049c0.002-0.015,0.02-0.239,0.02-0.239
				c0.24-1.931-0.344-3.02-0.344-3.02c0.395,1.67-0.332,2.622-0.756,3.02c-0.16,0.148-0.279,0.274-0.279,0.274
				c-0.012,0-0.021-0.2-0.031-0.274c-0.285-2.357,1.066-5.359,1.066-5.359c-0.865,0.77-1.389,3.273-1.621,4.65
				c0.275-2.321-0.178-3.391-0.178-3.391c0.178,1.941-0.271,3.535-0.461,4.1c-0.049,0.142-0.08,0.274-0.08,0.274
				c-0.021,0-0.041-0.194-0.061-0.274c-0.324-1.404-0.164-4.865-0.164-4.865c-0.322,0.808-0.518,2.467-0.621,3.67
				c0-2.041-0.639-3.265-0.639-3.265c0.674,2.61-0.227,4.32-0.227,4.32c0.182-2.34-0.449-2.925-0.449-2.925
				c0.465,0.969-0.586,2.881-0.586,2.881c-0.404-2.521,0.586-6.076,0.586-6.076c-0.6,0.845-0.951,2.959-1.135,4.496
				c-0.02-1.952-0.836-2.696-0.836-2.696c0.82,1.98-0.01,4.411-0.01,4.411c0.09-2.341-0.494-3.466-0.494-3.466
				c0.072,1.033-0.76,2.881-1.063,3.514c-0.066,0.139-0.108,0.275-0.108,0.275c-0.017,0-0.031-0.197-0.045-0.275
				c-0.303-1.738,0.315-5.449,0.315-5.449c-0.709,0.552-1.142,4.47-1.239,5.45c-0.014,0.141-0.021,0.274-0.021,0.274
				c-0.004,0-0.009-0.2-0.013-0.274c-0.094-1.521-0.083-3.21-0.083-3.21c-0.298,0.327-0.533,3.484-0.534,3.484l0.008-0.275
				c0.193-3.932-0.503-5.224-0.503-5.224c0.341,1.932-0.274,4.469-0.478,5.224c-0.038,0.143-0.063,0.275-0.063,0.275
				c-0.045,0-0.082-0.193-0.116-0.275c-0.473-1.159,0.116-3.829,0.116-3.829c-0.543,0.699-0.729,1.932-0.79,2.854
				c0.051-4.729-0.335-6.274-0.335-6.274c0.276,1.705-0.318,6.203-0.464,7.249c-0.009,0.062-0.008,0.056,0,0h-0.012
				c0.107-1.592-0.425-4.459-0.425-4.459c0,1.25-0.287,3.711-0.378,4.459c-0.017,0.141-0.027,0.275-0.027,0.275
				c-0.046-0.092-0.068-0.199-0.099-0.275c-0.686-2.037,0.099-5.449,0.099-5.449c-1.045,1.394-1.158,4.585-1.169,5.449
				c-0.001,0.066-0.001,0.085,0,0c0,0,0.054,0.331-0.093,0c-0.502-1.085,0.12-4.459,0.12-4.459
				c-0.616,0.655-0.867,3.623-0.923,4.459c-0.009,0.14-0.021,0.275-0.021,0.275c-0.016,0-0.032-0.201-0.044-0.275
				c-0.49-2.872,0.961-6.052,0.961-6.052c-1.439,0.899-1.813,6.327-1.813,6.327v2.476h17.605v-2.751l0,0
				C45.096,50.105,44.104,49.334,44.104,49.334z"/>
		</g>
	</g>
	<g>
		<g>
			<path fill="#4D4D4D" d="M60.943,49.334c0.746,2.873-0.068,6.001-0.078,6.049c0.002-0.015,0.02-0.239,0.02-0.239
				c0.238-1.931-0.344-3.02-0.344-3.02c0.393,1.67-0.332,2.622-0.758,3.02c-0.158,0.148-0.277,0.274-0.277,0.274
				c-0.012,0-0.023-0.2-0.031-0.274c-0.287-2.357,1.066-5.359,1.066-5.359c-0.865,0.77-1.391,3.273-1.621,4.65
				c0.275-2.321-0.18-3.391-0.18-3.391c0.18,1.941-0.271,3.535-0.461,4.1c-0.047,0.142-0.078,0.274-0.078,0.274
				c-0.021,0-0.043-0.194-0.061-0.274c-0.326-1.404-0.164-4.865-0.164-4.865c-0.324,0.808-0.518,2.467-0.621,3.67
				c0-2.041-0.641-3.265-0.641-3.265c0.676,2.61-0.225,4.32-0.225,4.32c0.18-2.34-0.449-2.925-0.449-2.925
				c0.465,0.969-0.586,2.881-0.586,2.881c-0.404-2.521,0.586-6.076,0.586-6.076c-0.6,0.845-0.951,2.959-1.137,4.496
				c-0.02-1.952-0.834-2.696-0.834-2.696c0.818,1.98-0.01,4.411-0.01,4.411c0.09-2.341-0.496-3.466-0.496-3.466
				c0.074,1.033-0.758,2.881-1.061,3.514c-0.066,0.139-0.109,0.275-0.109,0.275c-0.018,0-0.031-0.197-0.045-0.275
				c-0.303-1.738,0.314-5.449,0.314-5.449c-0.707,0.552-1.141,4.47-1.238,5.45c-0.014,0.141-0.021,0.274-0.021,0.274
				c-0.004,0-0.008-0.2-0.014-0.274c-0.092-1.521-0.082-3.21-0.082-3.21c-0.299,0.327-0.533,3.484-0.535,3.484l0.008-0.275
				c0.195-3.932-0.502-5.224-0.502-5.224c0.342,1.932-0.275,4.469-0.479,5.224c-0.037,0.143-0.061,0.275-0.061,0.275
				c-0.045,0-0.084-0.193-0.117-0.275c-0.473-1.159,0.117-3.829,0.117-3.829c-0.545,0.699-0.73,1.932-0.791,2.854
				c0.051-4.729-0.334-6.274-0.334-6.274c0.275,1.705-0.32,6.203-0.465,7.249c-0.008,0.062-0.008,0.056,0,0h-0.012
				c0.107-1.592-0.424-4.459-0.424-4.459c0,1.25-0.287,3.711-0.379,4.459c-0.016,0.141-0.027,0.275-0.027,0.275
				c-0.045-0.092-0.068-0.199-0.098-0.275c-0.688-2.037,0.098-5.449,0.098-5.449c-1.045,1.394-1.158,4.585-1.168,5.449
				c-0.002,0.066-0.002,0.085,0,0c0,0,0.053,0.331-0.094,0c-0.502-1.085,0.121-4.459,0.121-4.459
				c-0.617,0.655-0.867,3.623-0.924,4.459c-0.008,0.14-0.02,0.275-0.02,0.275c-0.016,0-0.033-0.201-0.045-0.275
				c-0.49-2.872,0.961-6.052,0.961-6.052c-1.439,0.899-1.813,6.327-1.813,6.327v2.476h15.105l2.5-2.751l0,0
				C61.936,50.105,60.943,49.334,60.943,49.334z"/>
		</g>
	</g>
</g>
</svg>
