<?xml version="1.0" encoding="utf-8"?>
<!-- Generator: Adobe Illustrator 14.0.0, SVG Export Plug-In . SVG Version: 6.00 Build 43363)  -->
<!DOCTYPE svg PUBLIC "-//W3C//DTD SVG 1.1//EN" "http://www.w3.org/Graphics/SVG/1.1/DTD/svg11.dtd">
<svg version="1.1" id="Layer_1" xmlns="http://www.w3.org/2000/svg" xmlns:xlink="http://www.w3.org/1999/xlink" x="0px" y="0px"
	 width="72px" height="72px" viewBox="0 0 72 72" enable-background="new 0 0 72 72" xml:space="preserve">
<g>
	<g id="Layer_5_1_">
		<g>
			<path fill="#4D4D4D" d="M57.253,14.746c-0.328-0.328-0.861-0.328-1.19,0l-4.324,4.325c-0.105,0.105-0.184,0.044-0.222,0.013
				c-1.498-1.218-3.239-1.857-5.087-1.857c-2.453,0-4.974,1.116-7.139,3.15c-0.029,0.022-0.057,0.046-0.083,0.071
				c-0.014,0.015-0.026,0.029-0.039,0.044c-0.069,0.067-0.14,0.135-0.208,0.204l-3.639,3.638c-0.001,0-0.001,0.001-0.001,0.001
				s0,0,0,0.001l-3.885,3.885h-0.001l0,0l-3.885,3.885c0,0.001-0.001,0.001-0.001,0.001c0,0.001-0.001,0.001-0.001,0.002
				l-2.438,2.437l0,0c0,0-0.465,0.465-0.619,0.62c-0.321,0.32-0.554-0.013-0.554-0.013l-0.423-0.423
				c-0.53-0.53-1.235-0.822-1.984-0.822s-1.454,0.292-1.983,0.822c-1.095,1.095-1.095,2.874,0,3.969c0,0,4.251,4.25,5.667,5.668
				c0.169,0.169-0.026,0.319-0.026,0.319l-6.259,6.26c0,0-0.173,0.128-0.323-0.022c-0.518-0.517-2.066-2.066-2.066-2.066
				c-0.447-0.447-1.042-0.693-1.674-0.693s-1.227,0.246-1.673,0.693c-0.923,0.923-0.923,2.424,0,3.347l6.604,6.604
				c0.446,0.448,1.041,0.694,1.673,0.694c0.633,0,1.227-0.246,1.674-0.694c0.922-0.923,0.922-2.424,0-3.347
				c0,0-1.553-1.552-2.069-2.068c-0.174-0.174-0.021-0.321-0.021-0.321l6.315-6.315c0,0,0.114-0.119,0.246,0.013
				c1.422,1.421,5.686,5.686,5.686,5.686c0.53,0.529,1.235,0.821,1.984,0.821c0.75,0,1.455-0.292,1.985-0.821
				c1.094-1.095,1.094-2.875,0-3.969l-0.538-0.538c0,0-0.144-0.193,0.021-0.358c0.175-0.175,0.701-0.699,0.701-0.699l0,0
				l13.849-13.85c1.949-1.949,3.163-4.277,3.417-6.553c0.245-2.199-0.382-4.258-1.813-6.009c-0.029-0.036-0.091-0.105,0.022-0.218
				l4.323-4.323C57.582,15.608,57.582,15.075,57.253,14.746z M50.113,31.849c0,0-10.171,10.172-13.562,13.563
				c-0.315,0.315-0.541,0.032-0.541,0.032l-9.443-9.442c0,0-0.27-0.262,0.047-0.578c0.295-0.295,1.046-1.046,1.374-1.374
				c0.172-0.173,0.318,0.004,0.318,0.004l4.356,4.358c0.164,0.165,0.38,0.246,0.595,0.246c0.216,0,0.432-0.081,0.596-0.246
				c0.328-0.328,0.328-0.861,0-1.189c0,0-3.314-3.314-4.419-4.42c-0.103-0.103,0.015-0.214,0.015-0.214s1.843-1.843,2.457-2.457
				c0.112-0.113,0.225-0.024,0.225-0.024l2.522,2.522c0.165,0.165,0.38,0.246,0.596,0.246c0.215,0,0.431-0.081,0.596-0.246
				c0.328-0.328,0.328-0.862,0-1.189l-2.557-2.556c0,0-0.075-0.061,0.012-0.147c0.654-0.653,1.914-1.913,2.552-2.551
				c0.071-0.071,0.121-0.009,0.121-0.009l4.463,4.462c0.164,0.164,0.38,0.246,0.596,0.246c0.215,0,0.431-0.082,0.595-0.246
				c0.328-0.329,0.328-0.861,0-1.19l-4.448-4.447c0,0-0.069-0.072,0.012-0.152c0.575-0.575,2.16-2.161,2.534-2.535
				c0.097-0.098,0.152-0.007,0.152-0.007l2.55,2.551c0.164,0.164,0.38,0.246,0.595,0.246c0.216,0,0.431-0.082,0.596-0.246
				c0.328-0.329,0.328-0.861,0-1.19l-2.458-2.458c-0.124-0.124-0.033-0.199,0.013-0.236c1.666-1.337,3.496-2.063,5.259-2.063
				c1.728,0,3.285,0.682,4.631,2.028C54.738,24.615,52.849,29.113,50.113,31.849z"/>
		</g>
	</g>
	<circle fill="none" stroke="#4D4D4D" stroke-width="5" cx="36" cy="36" r="32.5"/>
</g>
</svg>
