<?xml version="1.0" encoding="utf-8"?>
<!-- Generator: Adobe Illustrator 14.0.0, SVG Export Plug-In . SVG Version: 6.00 Build 43363)  -->
<!DOCTYPE svg PUBLIC "-//W3C//DTD SVG 1.1//EN" "http://www.w3.org/Graphics/SVG/1.1/DTD/svg11.dtd">
<svg version="1.1" id="Layer_1" xmlns="http://www.w3.org/2000/svg" xmlns:xlink="http://www.w3.org/1999/xlink" x="0px" y="0px"
	 width="72px" height="72px" viewBox="0 0 72 72" enable-background="new 0 0 72 72" xml:space="preserve">
<g>
	<g>
		<g>
			<g>
				<path fill="#4D4D4D" d="M45.66,43.124c-0.608,0-1.105-0.494-1.105-1.104c0-0.402,0.57-1.471,1.105-2.33
					c0.534,0.859,1.104,1.928,1.104,2.33C46.765,42.63,46.269,43.124,45.66,43.124z M34.802,44.038
					c-0.066,0.075-0.083,0.182-0.041,0.273c0.04,0.09,0.13,0.147,0.23,0.147h2.806L26.098,57.003l6.933-9.979
					c0.054-0.077,0.06-0.178,0.017-0.26c-0.044-0.084-0.13-0.137-0.224-0.137h-5.125l6.616-7.901h5.189L34.802,44.038z
					 M48.509,37.874H21.033c-4.565,0-8.278-3.713-8.278-8.278c0-4.253,3.185-7.793,7.409-8.233l0.379-0.089v-0.383
					c0-4.564,3.715-8.279,8.279-8.279c3.13,0,5.956,1.74,7.378,4.54l0.16,0.315l0.339-0.099c0.761-0.221,1.536-0.333,2.306-0.333
					c3.008,0,5.782,1.638,7.244,4.273l0.156,0.278l0.309-0.069c5.311-1.171,10.074,2.927,10.074,8.078
					C56.788,34.161,53.075,37.874,48.509,37.874z M57.336,27.303c-1.161-4.441-5.585-7.597-10.498-6.679
					c-1.647-2.748-4.62-4.443-7.833-4.443c-0.736,0-1.479,0.092-2.207,0.275c-0.599-1.077-1.393-1.998-2.321-2.734
					C35.504,12.092,37.308,11,39.37,11c2.191,0,4.171,1.218,5.168,3.179l0.16,0.314l0.34-0.099c2.613-0.76,5.402,0.442,6.688,2.761
					l0.153,0.278l0.31-0.068c3.733-0.817,7.057,2.051,7.057,5.657C59.244,24.721,58.505,26.244,57.336,27.303z"/>
			</g>
			<g>
				<path fill="#4D4D4D" d="M25.458,44.333c0-0.93-1.342-2.975-1.612-3.375l-0.334-0.498l-0.335,0.498
					c-0.268,0.4-1.613,2.445-1.613,3.375c0,1.07,0.875,1.947,1.947,1.947C24.586,46.28,25.458,45.403,25.458,44.333z"/>
			</g>
			<g>
				<path fill="#4D4D4D" d="M38.987,48.231c-0.043,0-0.084,0.02-0.111,0.055l-4.177,4.988c-0.038,0.043-0.045,0.104-0.021,0.156
					c0.025,0.051,0.077,0.084,0.134,0.084h3.016l-5.042,7.254c-0.044,0.064-0.031,0.15,0.027,0.199
					C32.841,60.989,32.873,61,32.906,61c0.039,0,0.079-0.017,0.107-0.046l8.432-9.041c0.04-0.045,0.052-0.107,0.027-0.16
					c-0.023-0.055-0.077-0.088-0.135-0.088h-1.646l2.824-3.188c0.039-0.045,0.047-0.107,0.023-0.158
					c-0.023-0.055-0.076-0.088-0.133-0.088H38.987L38.987,48.231z"/>
			</g>
		</g>
	</g>
	<circle fill="none" stroke="#4D4D4D" stroke-width="5" cx="36" cy="36" r="32.5"/>
</g>
</svg>
