<?xml version="1.0" encoding="utf-8"?>
<!-- Generator: Adobe Illustrator 14.0.0, SVG Export Plug-In . SVG Version: 6.00 Build 43363)  -->
<!DOCTYPE svg PUBLIC "-//W3C//DTD SVG 1.1//EN" "http://www.w3.org/Graphics/SVG/1.1/DTD/svg11.dtd">
<svg version="1.1" id="Layer_1" xmlns="http://www.w3.org/2000/svg" xmlns:xlink="http://www.w3.org/1999/xlink" x="0px" y="0px"
	 width="100px" height="100px" viewBox="0 0 100 100" enable-background="new 0 0 100 100" xml:space="preserve">
<g>
	<path d="M97.162,85.119L53.83,10.068c-0.79-1.374-2.259-2.221-3.844-2.221c-1.585,0-3.05,0.847-3.844,2.221L2.594,85.492
		c-0.792,1.373-0.792,3.064,0,4.44c0.793,1.372,2.26,2.219,3.844,2.219h87.1c0.009,0,0.014,0.002,0.021,0
		c2.454,0,4.441-1.986,4.441-4.439C98,86.745,97.686,85.849,97.162,85.119z M14.127,83.274l35.858-62.109l35.86,62.11L14.127,83.274
		L14.127,83.274z M47.698,36.16H52.3c0.379,0,0.746,0.153,1.01,0.423c0.263,0.274,0.403,0.64,0.394,1.019l-0.926,29.061
		c-0.016,0.765-0.644,1.368-1.405,1.368h-2.748c-0.761,0-1.386-0.606-1.404-1.368l-0.925-29.061
		c-0.01-0.379,0.134-0.745,0.397-1.019C46.956,36.313,47.32,36.16,47.698,36.16z M53.646,71.89v5.261
		c0,0.775-0.626,1.402-1.404,1.402H47.76c-0.779,0-1.404-0.627-1.404-1.402V71.89c0-0.776,0.625-1.405,1.404-1.405h4.481
		C53.02,70.483,53.646,71.113,53.646,71.89z"/>
</g>
</svg>
